<?xml version="1.0" encoding="utf-8"?>
<!-- Generator: Adobe Illustrator 21.0.0, SVG Export Plug-In . SVG Version: 6.00 Build 0)  -->
<svg version="1.1" id="Layer_1" xmlns="http://www.w3.org/2000/svg" xmlns:xlink="http://www.w3.org/1999/xlink" x="0px" y="0px"
	 width="949.5px" height="547.9px" viewBox="0 0 949.5 547.9" style="enable-background:new 0 0 949.5 547.9;" xml:space="preserve"
	>
<style type="text/css">
	.st0{fill:#F1F0EF;}
	.st1{fill:#DCDCDB;}
	.st2{fill:#A4DCE8;}
	.st3{fill:#DAF0F6;}
	.st4{fill:#0F87C9;}
	.st5{fill:#FFFFFF;}
	.st6{fill:#4D4C4D;}
	.st7{fill:#70CDE6;}
	.st8{fill:#70CDE6;stroke:#0F87C9;stroke-width:2;stroke-miterlimit:10;}
	.st9{fill:none;stroke:#4D4C4D;stroke-miterlimit:10;}
</style>
<rect x="19" class="st0" width="915.5" height="74.5"/>
<rect x="39.4" y="74.5" class="st1" width="874.8" height="26.2"/>
<rect x="52.5" y="100.7" class="st2" width="848.5" height="26.2"/>
<rect y="234.2" class="st3" width="949.5" height="313.7"/>
<rect x="390.4" y="365.3" class="st4" width="54.2" height="45.5"/>
<rect x="272" y="415.9" class="st4" width="54.2" height="45.5"/>
<rect x="568.1" y="415.9" class="st4" width="54.2" height="45.5"/>
<g>
	<path class="st5" d="M303.8,446.9v-6.4c0-0.9,0.1-3.2,0.1-3.8c-0.2,0.6-0.8,1.9-1.2,2.9l-3.5,7.8l-3.5-7.8c-0.4-1-1-2.2-1.2-2.9
		c0,0.7,0.1,2.9,0.1,3.8v6.4h-3.4v-17.5h3.4l3.6,7.9c0.4,1,1,2.3,1.2,2.9c0.2-0.7,0.7-1.9,1.2-2.9l3.5-7.9h3.4v17.5H303.8z"/>
</g>
<g>
	<path class="st5" d="M422.2,396.2v-6.4c0-0.9,0.1-3.2,0.1-3.8c-0.2,0.6-0.8,1.9-1.2,2.9l-3.5,7.8l-3.5-7.8c-0.4-1-1-2.2-1.2-2.9
		c0,0.7,0.1,2.9,0.1,3.8v6.4h-3.4v-17.5h3.4l3.6,7.9c0.4,1,1,2.3,1.2,2.9c0.2-0.7,0.7-1.9,1.2-2.9l3.5-7.9h3.4v17.5H422.2z"/>
</g>
<g>
	<path class="st6" d="M455.7,45.4v-7.3h-7.2v7.3h-3.5V27.9h3.5v6.7h7.2v-6.7h3.5v17.5H455.7z"/>
	<path class="st6" d="M470.4,45.7c-4.8,0-7.6-3.7-7.6-9s2.8-9,7.6-9s7.6,3.7,7.6,9S475.2,45.7,470.4,45.7z M470.4,31.1
		c-2.8,0-4,2.4-4,5.5c0,3.1,1.2,5.5,4,5.5s4-2.4,4-5.5C474.4,33.6,473.2,31.1,470.4,31.1z"/>
	<path class="st6" d="M487.2,45.7c-2.9,0-5.5-1.2-6.8-3.2l2.5-2.2c1.2,1.4,2.8,2,4.5,2c2.1,0,3-0.6,3-1.9c0-1.1-0.6-1.6-3.9-2.4
		c-3.2-0.7-5.5-1.8-5.5-5.2c0-3.2,2.8-5.1,6.2-5.1c2.7,0,4.7,1,6.4,2.7l-2.5,2.4c-1.1-1.1-2.4-1.8-4-1.8c-1.9,0-2.5,0.8-2.5,1.6
		c0,1.1,0.7,1.4,3.5,2.1s5.8,1.6,5.8,5.4C494,43.5,491.9,45.7,487.2,45.7z"/>
	<path class="st6" d="M504.5,31.4v14H501v-14h-5v-3.4h13.5v3.4H504.5z"/>
</g>
<g>
	<path class="st6" d="M390.7,92.4l-2.8-5.1l-1.7,2v3.1h-2.1V81.9h2.1v3c0,0.4,0,1.3,0,1.7c0.1-0.2,0.5-0.7,0.8-1.1l2.9-3.6h2.5
		l-3.1,3.6l3.9,6.9H390.7z"/>
	<path class="st6" d="M401,92.4l-1.9-3.8H397v3.8h-2.1V81.9h4.9c2,0,3.6,1.1,3.6,3.3c0,1.6-0.7,2.6-2,3.1l2,4.1H401z M399.7,84H397
		v2.7h2.7c1,0,1.5-0.5,1.5-1.4C401.2,84.4,400.6,84,399.7,84z"/>
	<path class="st6" d="M410.4,92.4h-4.8V81.9h4.8c2,0,3.3,1,3.3,2.8c0,0.9-0.4,1.6-1.1,2c0.8,0.4,1.5,1.1,1.5,2.3
		C414.1,91.3,412.6,92.4,410.4,92.4z M410.3,83.9h-2.7v2h2.8c0.9,0,1.2-0.4,1.2-1C411.6,84.2,411.2,83.9,410.3,83.9z M410.4,87.7
		h-2.8v2.7h2.8c1,0,1.5-0.5,1.5-1.4C411.9,88.2,411.4,87.7,410.4,87.7z"/>
	<path class="st6" d="M419.4,92.4h-3.1V81.9h3.3c3,0,5.2,1.4,5.2,5.2C424.7,90.9,422.1,92.4,419.4,92.4z M419.4,84h-1.1v6.4h1
		c2.2,0,3.2-1.3,3.2-3.2C422.6,85,421.7,84,419.4,84z"/>
	<path class="st6" d="M433.4,94.1c-1.4-1.6-2.6-3.4-2.6-6.1c0-2.8,1.1-4.5,2.6-6.2l1.4,0.9c-1.1,1.4-1.8,2.9-1.8,5.2
		c0,2.4,0.7,3.9,1.8,5.3L433.4,94.1z"/>
	<path class="st6" d="M443.4,92.4l-2.8-5.1l-1.7,2v3.1h-2.1V81.9h2.1v3c0,0.4,0,1.3,0,1.7c0.1-0.2,0.5-0.7,0.8-1.1l2.9-3.6h2.5
		l-3.1,3.6l3.9,6.9H443.4z"/>
	<path class="st6" d="M447.5,92.4V81.9h7.3V84h-5.2v1.8h3v2h-3v2.5h5.4v2.1H447.5z"/>
	<path class="st6" d="M463.4,92.4l-1.9-3.8h-2.1v3.8h-2.1V81.9h4.9c2,0,3.6,1.1,3.6,3.3c0,1.6-0.7,2.6-2,3.1l2,4.1H463.4z M462.1,84
		h-2.7v2.7h2.7c1,0,1.5-0.5,1.5-1.4C463.6,84.4,463.1,84,462.1,84z"/>
	<path class="st6" d="M474.6,92.4l-3.9-5.7c-0.3-0.4-0.6-0.9-0.7-1.2c0,0.4,0,1.7,0,2.3v4.6H468V81.9h2l3.7,5.5
		c0.3,0.4,0.6,0.9,0.7,1.2c0-0.4,0-1.7,0-2.3v-4.4h2.1v10.5H474.6z"/>
	<path class="st6" d="M479.2,92.4V81.9h7.3V84h-5.2v1.8h3v2h-3v2.5h5.4v2.1H479.2z"/>
	<path class="st6" d="M489,92.4V81.9h2.1v8.4h5.3v2.1H489z"/>
	<path class="st6" d="M510.3,92.4v-3.9c0-0.6,0-1.9,0-2.3c-0.1,0.4-0.5,1.1-0.7,1.7l-2.1,4.7l-2.1-4.7c-0.3-0.6-0.6-1.4-0.7-1.7
		c0,0.4,0,1.7,0,2.3v3.9h-2.1V81.9h2l2.2,4.8c0.3,0.6,0.6,1.4,0.7,1.8c0.1-0.4,0.4-1.2,0.7-1.8l2.1-4.8h2.1v10.5H510.3z"/>
	<path class="st6" d="M519.1,92.6c-2.9,0-4.6-2.2-4.6-5.4c0-3.2,1.7-5.4,4.6-5.4c2.9,0,4.6,2.2,4.6,5.4
		C523.7,90.4,522,92.6,519.1,92.6z M519.1,83.9c-1.7,0-2.4,1.5-2.4,3.3c0,1.9,0.7,3.3,2.4,3.3c1.7,0,2.4-1.5,2.4-3.3
		C521.5,85.3,520.8,83.9,519.1,83.9z"/>
	<path class="st6" d="M529,92.4h-3.1V81.9h3.3c3,0,5.2,1.4,5.2,5.2C534.3,90.9,531.7,92.4,529,92.4z M529,84h-1.1v6.4h1
		c2.2,0,3.2-1.3,3.2-3.2C532.2,85,531.3,84,529,84z"/>
	<path class="st6" d="M540.6,92.6c-2.5,0-4.2-1.7-4.2-4.8v-5.9h2.1v5.9c0,1.7,0.8,2.7,2.1,2.7c1.3,0,2.2-1,2.2-2.7v-5.9h2.1v5.9
		C544.9,90.9,543.3,92.6,540.6,92.6z"/>
	<path class="st6" d="M547.5,92.4V81.9h2.1v8.4h5.3v2.1H547.5z"/>
	<path class="st6" d="M556.8,92.4V81.9h7.3V84h-5.2v1.8h3v2h-3v2.5h5.4v2.1H556.8z"/>
	<path class="st6" d="M567.2,94.1l-1.4-0.9c1.1-1.4,1.8-2.9,1.8-5.2c0-2.4-0.7-3.9-1.8-5.3l1.4-0.9c1.4,1.6,2.6,3.4,2.6,6.1
		C569.8,90.7,568.7,92.4,567.2,94.1z"/>
</g>
<g>
	<path class="st6" d="M439.2,119.1v-10.5h2.1v8.4h5.3v2.1H439.2z"/>
	<path class="st6" d="M448.6,119.1v-10.5h2.1v10.5H448.6z"/>
	<path class="st6" d="M458.4,119.1h-4.8v-10.5h4.8c2,0,3.3,1,3.3,2.8c0,0.9-0.4,1.6-1.1,2c0.8,0.4,1.5,1.1,1.5,2.3
		C462.1,117.9,460.6,119.1,458.4,119.1z M458.3,110.5h-2.7v2h2.8c0.9,0,1.2-0.4,1.2-1C459.6,110.9,459.2,110.5,458.3,110.5z
		 M458.4,114.4h-2.8v2.7h2.8c1,0,1.5-0.5,1.5-1.4C459.9,114.9,459.5,114.4,458.4,114.4z"/>
	<path class="st6" d="M470.3,119.1l-1.9-3.8h-2.1v3.8h-2.1v-10.5h4.9c2,0,3.6,1.1,3.6,3.3c0,1.6-0.7,2.6-2,3.1l2,4.1H470.3z
		 M469.1,110.7h-2.7v2.7h2.7c1,0,1.5-0.5,1.5-1.4C470.6,111,470,110.7,469.1,110.7z"/>
	<path class="st6" d="M481.7,119.1l-0.8-2.3H477l-0.8,2.3H474l4-10.5h2l4,10.5H481.7z M479.5,112.9c-0.2-0.6-0.4-1.2-0.5-1.6
		c-0.1,0.4-0.3,1-0.5,1.6l-0.7,1.9h2.4L479.5,112.9z"/>
	<path class="st6" d="M489.1,119.1H486v-10.5h3.3c3,0,5.2,1.4,5.2,5.2C494.5,117.6,491.8,119.1,489.1,119.1z M489.2,110.7h-1.1v6.4
		h1c2.2,0,3.2-1.3,3.2-3.2C492.3,111.7,491.4,110.7,489.2,110.7z"/>
	<path class="st6" d="M500.6,119.3c-2.9,0-4.6-2.2-4.6-5.4c0-3.2,1.7-5.4,4.6-5.4c2.9,0,4.6,2.2,4.6,5.4
		C505.1,117.1,503.4,119.3,500.6,119.3z M500.6,110.5c-1.7,0-2.4,1.5-2.4,3.3c0,1.9,0.7,3.3,2.4,3.3c1.7,0,2.4-1.5,2.4-3.3
		C503,112,502.3,110.5,500.6,110.5z"/>
	<path class="st6" d="M510.6,119.3c-1.8,0-3.3-0.7-4.1-1.9l1.5-1.4c0.7,0.9,1.7,1.2,2.7,1.2c1.2,0,1.8-0.3,1.8-1.1
		c0-0.7-0.4-1-2.3-1.4c-1.9-0.5-3.3-1.1-3.3-3.1c0-1.9,1.7-3.1,3.7-3.1c1.6,0,2.8,0.6,3.8,1.6l-1.5,1.5c-0.7-0.7-1.4-1.1-2.4-1.1
		c-1.1,0-1.5,0.5-1.5,0.9c0,0.7,0.4,0.9,2.1,1.3c1.7,0.4,3.5,1,3.5,3.2C514.8,117.9,513.5,119.3,510.6,119.3z"/>
</g>
<g>
	<path class="st5" d="M599.9,446.9v-6.4c0-1,0.1-3.2,0.1-3.8c-0.2,0.7-0.8,1.9-1.2,2.9l-3.5,7.8l-3.5-7.8c-0.4-1-1-2.2-1.2-2.9
		c0,0.7,0.1,2.9,0.1,3.8v6.4h-3.4v-17.5h3.4l3.6,7.9c0.4,1,1,2.3,1.2,2.9c0.2-0.6,0.7-1.9,1.2-2.9l3.5-7.9h3.4v17.5H599.9z"/>
</g>
<rect x="35.1" y="264.3" class="st2" width="54.2" height="45.5"/>
<rect x="94.3" y="264.3" class="st2" width="54.2" height="45.5"/>
<rect x="153.5" y="264.3" class="st2" width="54.2" height="45.5"/>
<rect x="212.7" y="264.3" class="st2" width="54.2" height="45.5"/>
<rect x="272" y="264.3" class="st2" width="54.2" height="45.5"/>
<rect x="331.2" y="264.3" class="st2" width="54.2" height="45.5"/>
<rect x="390.4" y="264.3" class="st2" width="54.2" height="45.5"/>
<rect x="449.7" y="264.3" class="st2" width="54.2" height="45.5"/>
<rect x="508.9" y="264.3" class="st2" width="54.2" height="45.5"/>
<rect x="568.1" y="264.3" class="st2" width="54.2" height="45.5"/>
<rect x="627.4" y="264.3" class="st2" width="54.2" height="45.5"/>
<rect x="686.6" y="264.3" class="st2" width="54.2" height="45.5"/>
<rect x="745.8" y="264.3" class="st2" width="54.2" height="45.5"/>
<rect x="805.1" y="264.3" class="st2" width="54.2" height="45.5"/>
<rect x="864.3" y="264.3" class="st2" width="54.2" height="45.5"/>
<rect x="35.1" y="314.8" class="st2" width="54.2" height="45.5"/>
<rect x="94.3" y="314.8" class="st2" width="54.2" height="45.5"/>
<rect x="153.5" y="314.8" class="st2" width="54.2" height="45.5"/>
<rect x="212.7" y="314.8" class="st2" width="54.2" height="45.5"/>
<rect x="272" y="314.8" class="st2" width="54.2" height="45.5"/>
<rect x="331.2" y="314.8" class="st2" width="54.2" height="45.5"/>
<rect x="390.4" y="314.8" class="st2" width="54.2" height="45.5"/>
<rect x="449.7" y="314.8" class="st2" width="54.2" height="45.5"/>
<rect x="508.9" y="314.8" class="st2" width="54.2" height="45.5"/>
<rect x="568.1" y="314.8" class="st2" width="54.2" height="45.5"/>
<rect x="627.4" y="314.8" class="st2" width="54.2" height="45.5"/>
<rect x="686.6" y="314.8" class="st2" width="54.2" height="45.5"/>
<rect x="745.8" y="314.8" class="st2" width="54.2" height="45.5"/>
<rect x="805.1" y="314.8" class="st2" width="54.2" height="45.5"/>
<rect x="864.3" y="314.8" class="st2" width="54.2" height="45.5"/>
<rect x="35.1" y="365.3" class="st2" width="54.2" height="45.5"/>
<rect x="94.3" y="365.3" class="st2" width="54.2" height="45.5"/>
<rect x="153.5" y="365.3" class="st2" width="54.2" height="45.5"/>
<rect x="212.7" y="365.3" class="st2" width="54.2" height="45.5"/>
<rect x="272" y="365.3" class="st2" width="54.2" height="45.5"/>
<rect x="331.2" y="365.3" class="st2" width="54.2" height="45.5"/>
<rect x="449.7" y="365.3" class="st2" width="54.2" height="45.5"/>
<rect x="508.9" y="365.3" class="st2" width="54.2" height="45.5"/>
<rect x="568.1" y="365.3" class="st2" width="54.2" height="45.5"/>
<rect x="627.4" y="365.3" class="st2" width="54.2" height="45.5"/>
<rect x="686.6" y="365.3" class="st2" width="54.2" height="45.5"/>
<rect x="745.8" y="365.3" class="st2" width="54.2" height="45.5"/>
<rect x="805.1" y="365.3" class="st2" width="54.2" height="45.5"/>
<rect x="864.3" y="365.3" class="st2" width="54.2" height="45.5"/>
<rect x="35.1" y="415.9" class="st2" width="54.2" height="45.5"/>
<rect x="94.3" y="415.9" class="st2" width="54.2" height="45.5"/>
<rect x="153.5" y="415.9" class="st2" width="54.2" height="45.5"/>
<rect x="212.7" y="415.9" class="st2" width="54.2" height="45.5"/>
<rect x="331.2" y="415.9" class="st2" width="54.2" height="45.5"/>
<rect x="390.4" y="415.9" class="st2" width="54.2" height="45.5"/>
<rect x="449.7" y="415.9" class="st2" width="54.2" height="45.5"/>
<rect x="508.9" y="415.9" class="st2" width="54.2" height="45.5"/>
<rect x="627.4" y="415.9" class="st2" width="54.2" height="45.5"/>
<rect x="686.6" y="415.9" class="st2" width="54.2" height="45.5"/>
<rect x="745.8" y="415.9" class="st2" width="54.2" height="45.5"/>
<rect x="805.1" y="415.9" class="st2" width="54.2" height="45.5"/>
<rect x="864.3" y="415.9" class="st2" width="54.2" height="45.5"/>
<rect x="35.1" y="466.4" class="st2" width="54.2" height="45.5"/>
<rect x="94.3" y="466.4" class="st2" width="54.2" height="45.5"/>
<rect x="153.5" y="466.4" class="st2" width="54.2" height="45.5"/>
<rect x="212.7" y="466.4" class="st2" width="54.2" height="45.5"/>
<rect x="272" y="466.4" class="st2" width="54.2" height="45.5"/>
<rect x="331.2" y="466.4" class="st2" width="54.2" height="45.5"/>
<rect x="390.4" y="466.4" class="st2" width="54.2" height="45.5"/>
<rect x="449.7" y="466.4" class="st2" width="54.2" height="45.5"/>
<rect x="508.9" y="466.4" class="st2" width="54.2" height="45.5"/>
<rect x="568.1" y="466.4" class="st2" width="54.2" height="45.5"/>
<rect x="627.4" y="466.4" class="st2" width="54.2" height="45.5"/>
<rect x="686.6" y="466.4" class="st2" width="54.2" height="45.5"/>
<rect x="745.8" y="466.4" class="st2" width="54.2" height="45.5"/>
<rect x="805.1" y="466.4" class="st2" width="54.2" height="45.5"/>
<rect x="864.3" y="466.4" class="st2" width="54.2" height="45.5"/>
<rect x="39.4" y="295.7" class="st7" width="45.5" height="9.2"/>
<rect x="49.4" y="427.4" class="st8" width="25" height="15.2"/>
<rect x="168.1" y="321.6" class="st8" width="25" height="15.2"/>
<rect x="286.6" y="270.6" class="st8" width="25" height="15.2"/>
<rect x="819.7" y="321.6" class="st8" width="25" height="15.2"/>
<rect x="642" y="321.6" class="st8" width="25" height="15.2"/>
<rect x="701.2" y="372.9" class="st8" width="25" height="15.2"/>
<rect x="98.6" y="295.7" class="st7" width="45.5" height="9.2"/>
<rect x="157.9" y="295.7" class="st7" width="45.5" height="9.2"/>
<rect x="217.1" y="295.7" class="st7" width="45.5" height="9.2"/>
<rect x="276.3" y="295.7" class="st7" width="45.5" height="9.2"/>
<rect x="335.6" y="295.7" class="st7" width="45.5" height="9.2"/>
<rect x="394.8" y="295.7" class="st7" width="45.5" height="9.2"/>
<rect x="454" y="295.7" class="st7" width="45.5" height="9.2"/>
<rect x="513.3" y="295.7" class="st7" width="45.5" height="9.2"/>
<rect x="572.5" y="295.7" class="st7" width="45.5" height="9.2"/>
<rect x="631.7" y="295.7" class="st7" width="45.5" height="9.2"/>
<rect x="691" y="295.7" class="st7" width="45.5" height="9.2"/>
<rect x="750.2" y="295.7" class="st7" width="45.5" height="9.2"/>
<rect x="809.4" y="295.7" class="st7" width="45.5" height="9.2"/>
<rect x="868.7" y="295.7" class="st7" width="45.5" height="9.2"/>
<rect x="39.4" y="346.5" class="st7" width="45.5" height="9.2"/>
<rect x="98.6" y="346.5" class="st7" width="45.5" height="9.2"/>
<rect x="157.9" y="346.5" class="st7" width="45.5" height="9.2"/>
<rect x="217.1" y="346.5" class="st7" width="45.5" height="9.2"/>
<rect x="276.3" y="346.5" class="st7" width="45.5" height="9.2"/>
<rect x="335.6" y="346.5" class="st7" width="45.5" height="9.2"/>
<rect x="394.8" y="346.5" class="st7" width="45.5" height="9.2"/>
<rect x="454" y="346.5" class="st7" width="45.5" height="9.2"/>
<rect x="513.3" y="346.5" class="st7" width="45.5" height="9.2"/>
<rect x="572.5" y="346.5" class="st7" width="45.5" height="9.2"/>
<rect x="631.7" y="346.5" class="st7" width="45.5" height="9.2"/>
<rect x="691" y="346.5" class="st7" width="45.5" height="9.2"/>
<rect x="750.2" y="346.5" class="st7" width="45.5" height="9.2"/>
<rect x="809.4" y="346.5" class="st7" width="45.5" height="9.2"/>
<rect x="868.7" y="346.5" class="st7" width="45.5" height="9.2"/>
<rect x="39.4" y="396.2" class="st7" width="45.5" height="9.2"/>
<rect x="98.6" y="396.2" class="st7" width="45.5" height="9.2"/>
<rect x="157.9" y="396.2" class="st7" width="45.5" height="9.2"/>
<rect x="217.1" y="396.2" class="st7" width="45.5" height="9.2"/>
<rect x="276.3" y="396.2" class="st7" width="45.5" height="9.2"/>
<rect x="335.6" y="396.2" class="st7" width="45.5" height="9.2"/>
<rect x="454" y="396.2" class="st7" width="45.5" height="9.2"/>
<rect x="513.3" y="396.2" class="st7" width="45.5" height="9.2"/>
<rect x="572.5" y="396.2" class="st7" width="45.5" height="9.2"/>
<rect x="631.7" y="396.2" class="st7" width="45.5" height="9.2"/>
<rect x="691" y="396.2" class="st7" width="45.5" height="9.2"/>
<rect x="750.2" y="396.2" class="st7" width="45.5" height="9.2"/>
<rect x="809.4" y="396.2" class="st7" width="45.5" height="9.2"/>
<rect x="868.7" y="396.2" class="st7" width="45.5" height="9.2"/>
<rect x="39.4" y="446" class="st7" width="45.5" height="9.2"/>
<rect x="98.6" y="446" class="st7" width="45.5" height="9.2"/>
<rect x="157.9" y="446" class="st7" width="45.5" height="9.2"/>
<rect x="217.1" y="446" class="st7" width="45.5" height="9.2"/>
<rect x="335.6" y="446" class="st7" width="45.5" height="9.2"/>
<rect x="394.8" y="446" class="st7" width="45.5" height="9.2"/>
<rect x="454" y="446" class="st7" width="45.5" height="9.2"/>
<rect x="513.3" y="446" class="st7" width="45.5" height="9.2"/>
<rect x="631.7" y="446" class="st7" width="45.5" height="9.2"/>
<rect x="691" y="446" class="st7" width="45.5" height="9.2"/>
<rect x="750.2" y="446" class="st7" width="45.5" height="9.2"/>
<rect x="809.4" y="446" class="st7" width="45.5" height="9.2"/>
<rect x="868.7" y="446" class="st7" width="45.5" height="9.2"/>
<rect x="39.4" y="496.7" class="st7" width="45.5" height="9.2"/>
<rect x="98.6" y="496.7" class="st7" width="45.5" height="9.2"/>
<rect x="157.9" y="496.7" class="st7" width="45.5" height="9.2"/>
<rect x="217.1" y="496.7" class="st7" width="45.5" height="9.2"/>
<rect x="276.3" y="496.7" class="st7" width="45.5" height="9.2"/>
<rect x="335.6" y="496.7" class="st7" width="45.5" height="9.2"/>
<rect x="394.8" y="496.7" class="st7" width="45.5" height="9.2"/>
<rect x="454" y="496.7" class="st7" width="45.5" height="9.2"/>
<rect x="513.3" y="496.7" class="st7" width="45.5" height="9.2"/>
<rect x="572.5" y="496.7" class="st7" width="45.5" height="9.2"/>
<rect x="631.7" y="496.7" class="st7" width="45.5" height="9.2"/>
<rect x="691" y="496.7" class="st7" width="45.5" height="9.2"/>
<rect x="750.2" y="496.7" class="st7" width="45.5" height="9.2"/>
<rect x="809.4" y="496.7" class="st7" width="45.5" height="9.2"/>
<rect x="868.7" y="496.7" class="st7" width="45.5" height="9.2"/>
<polyline class="st9" points="476.2,126.9 476.2,175.6 62.2,175.6 62.2,427.4 "/>
<polyline class="st9" points="476.2,126.9 476.2,175.6 299.1,175.6 299.1,270.6 "/>
<polyline class="st9" points="476.2,126.9 476.2,175.6 180.6,175.6 180.6,321.6 "/>
<polyline class="st9" points="476.2,126.9 476.2,175.6 654.5,175.6 654.5,321.6 "/>
<polyline class="st9" points="476.2,126.9 476.2,175.6 713.7,175.6 713.7,372.9 "/>
<polyline class="st9" points="476.2,126.9 476.2,175.6 832.2,175.6 832.2,321.6 "/>
<g>
	<g>
		<line class="st9" x1="476.2" y1="175.6" x2="476.2" y2="134.1"/>
		<g>
			<polygon class="st6" points="481.2,135.5 476.2,126.9 471.2,135.5 			"/>
		</g>
	</g>
</g>
<g>
	<g>
		<rect x="635.3" y="54.8" class="st4" width="46.3" height="39.3"/>
		<rect x="638.7" y="84.5" class="st7" width="39.4" height="7.3"/>
		<rect x="639.4" y="66.1" class="st2" width="8.1" height="6.7"/>
		<rect x="649.5" y="66.1" class="st2" width="8.1" height="6.7"/>
		<rect x="659.6" y="66.1" class="st2" width="8.1" height="6.7"/>
		<rect x="669.6" y="66.1" class="st2" width="8.1" height="6.7"/>
		<rect x="639.4" y="74.8" class="st2" width="8.1" height="6.7"/>
		<rect x="649.5" y="74.8" class="st2" width="8.1" height="6.7"/>
		<rect x="659.6" y="74.8" class="st2" width="8.1" height="6.7"/>
		<rect x="669.6" y="74.8" class="st2" width="8.1" height="6.7"/>
	</g>
	<rect x="639.4" y="57.5" class="st2" width="8.1" height="6.7"/>
	<rect x="649.5" y="57.5" class="st2" width="8.1" height="6.7"/>
	<rect x="659.6" y="57.5" class="st2" width="8.1" height="6.7"/>
	<rect x="669.6" y="57.5" class="st2" width="8.1" height="6.7"/>
</g>
<g>
</g>
<g>
</g>
<g>
</g>
<g>
</g>
<g>
</g>
<g>
</g>
<g>
</g>
</svg>
