<?xml version="1.0" encoding="utf-8"?>
<!-- Generator: Adobe Illustrator 21.0.0, SVG Export Plug-In . SVG Version: 6.00 Build 0)  -->
<svg version="1.1" id="Layer_1" xmlns="http://www.w3.org/2000/svg" xmlns:xlink="http://www.w3.org/1999/xlink" x="0px" y="0px"
	 width="949.5px" height="712px" viewBox="0 0 949.5 712" style="enable-background:new 0 0 949.5 712;" xml:space="preserve">
<style type="text/css">
	.st0{fill:#F1F0EF;}
	.st1{fill:#DCDCDB;}
	.st2{fill:#A4DCE8;}
	.st3{fill:#DAF0F6;}
	.st4{fill:#0F87C9;}
	.st5{fill:#FFFFFF;}
	.st6{fill:#4D4C4D;}
	.st7{fill:#70CDE6;}
	.st8{fill:#70CDE6;stroke:#0F87C9;stroke-width:2;stroke-miterlimit:10;}
	.st9{fill:none;stroke:#4D4C4D;stroke-miterlimit:10;}
</style>
<rect x="388.9" class="st0" width="175.7" height="74.5"/>
<rect x="19" y="164.1" class="st0" width="915.5" height="74.5"/>
<rect x="39.4" y="238.5" class="st1" width="874.8" height="26.2"/>
<rect x="52.5" y="264.8" class="st2" width="848.5" height="26.2"/>
<rect y="398.3" class="st3" width="949.5" height="313.7"/>
<rect x="390.4" y="529.4" class="st4" width="54.2" height="45.5"/>
<rect x="272" y="579.9" class="st4" width="54.2" height="45.5"/>
<rect x="568.1" y="579.9" class="st4" width="54.2" height="45.5"/>
<g>
	<path class="st5" d="M303.8,611v-6.4c0-0.9,0.1-3.2,0.1-3.8c-0.2,0.6-0.8,1.9-1.2,2.9l-3.5,7.8l-3.5-7.8c-0.4-1-1-2.2-1.2-2.9
		c0,0.7,0.1,2.9,0.1,3.8v6.4h-3.4v-17.5h3.4l3.6,7.9c0.4,1,1,2.3,1.2,2.9c0.2-0.7,0.7-1.9,1.2-2.9l3.5-7.9h3.4V611H303.8z"/>
</g>
<g>
	<path class="st5" d="M422.2,560.3v-6.4c0-0.9,0.1-3.2,0.1-3.8c-0.2,0.6-0.8,1.9-1.2,2.9l-3.5,7.8l-3.5-7.8c-0.4-1-1-2.2-1.2-2.9
		c0,0.7,0.1,2.9,0.1,3.8v6.4h-3.4v-17.5h3.4l3.6,7.9c0.4,1,1,2.3,1.2,2.9c0.2-0.7,0.7-1.9,1.2-2.9l3.5-7.9h3.4v17.5H422.2z"/>
</g>
<g>
	<path class="st6" d="M468,45.4h-3.4l-6.2-17.5h3.9l3.3,10.1c0.3,1,0.7,2.2,0.8,2.9c0.2-0.6,0.5-1.8,0.8-2.9l3.2-10.1h3.8L468,45.4z
		"/>
	<path class="st6" d="M490.3,45.4V39c0-0.9,0.1-3.2,0.1-3.8c-0.2,0.6-0.8,1.9-1.2,2.9l-3.5,7.8l-3.5-7.8c-0.4-1-1-2.2-1.2-2.9
		c0,0.7,0.1,2.9,0.1,3.8v6.4h-3.4V27.9h3.4l3.6,7.9c0.4,1,1,2.3,1.2,2.9c0.2-0.6,0.7-1.9,1.2-2.9l3.5-7.9h3.4v17.5H490.3z"/>
</g>
<g>
	<path class="st6" d="M303.7,209.5h-3.4l-6.2-17.5h3.9l3.3,10.1c0.3,1,0.7,2.2,0.8,2.9c0.2-0.6,0.5-1.8,0.8-2.9l3.2-10.1h3.8
		L303.7,209.5z"/>
	<path class="st6" d="M313.5,209.5V192h3.5v17.5H313.5z"/>
	<path class="st6" d="M331.9,209.5l-3.1-6.3h-3.5v6.3h-3.5V192h8.1c3.3,0,6,1.8,6,5.5c0,2.6-1.1,4.3-3.3,5.1l3.3,6.8H331.9z
		 M329.8,195.4h-4.6v4.5h4.6c1.6,0,2.5-0.8,2.5-2.3C332.3,196.1,331.3,195.4,329.8,195.4z"/>
	<path class="st6" d="M346.4,195.5v14h-3.5v-14h-5V192h13.5v3.4H346.4z"/>
	<path class="st6" d="M361.7,209.8c-4.2,0-7.1-2.8-7.1-7.9V192h3.5v9.8c0,2.8,1.3,4.6,3.6,4.6s3.6-1.7,3.6-4.5V192h3.5v9.8
		C368.8,206.9,366.2,209.8,361.7,209.8z"/>
	<path class="st6" d="M384,209.5l-1.4-3.9h-6.4l-1.4,3.9h-3.7l6.7-17.5h3.4l6.6,17.5H384z M380.3,199.1c-0.3-1-0.7-2.1-0.9-2.7
		c-0.2,0.6-0.5,1.7-0.9,2.7l-1.1,3.2h4L380.3,199.1z"/>
	<path class="st6" d="M391.1,209.5V192h3.5v14h8.8v3.4H391.1z"/>
	<path class="st6" d="M406.8,209.5V192h3.5v17.5H406.8z"/>
	<path class="st6" d="M414.5,209.5v-3.1l7.5-9c0.5-0.7,1.5-1.8,2-2.3c-0.7,0-2.5,0.1-3.5,0.1H415V192h13.2v3.1l-7.4,9
		c-0.5,0.7-1.5,1.8-2,2.3c0.7,0,2.5,0,3.5,0h6v3.2H414.5z"/>
	<path class="st6" d="M443.7,209.5l-1.4-3.9h-6.4l-1.4,3.9h-3.7l6.7-17.5h3.4l6.6,17.5H443.7z M440,199.1c-0.4-1-0.7-2.1-0.9-2.7
		c-0.2,0.6-0.5,1.7-0.9,2.7l-1.1,3.2h4L440,199.1z"/>
	<path class="st6" d="M455.8,195.5v14h-3.5v-14h-5V192h13.5v3.4H455.8z"/>
	<path class="st6" d="M464.4,209.5V192h3.5v17.5H464.4z"/>
	<path class="st6" d="M479.4,209.8c-4.8,0-7.6-3.7-7.6-9s2.8-9,7.6-9s7.6,3.7,7.6,9S484.1,209.8,479.4,209.8z M479.4,195.2
		c-2.8,0-4,2.4-4,5.5c0,3.1,1.2,5.5,4,5.5s4-2.4,4-5.5C483.4,197.6,482.2,195.2,479.4,195.2z"/>
	<path class="st6" d="M501.6,209.5l-6.4-9.5c-0.4-0.6-1-1.5-1.2-2c0,0.6,0.1,2.8,0.1,3.8v7.7h-3.4V192h3.3l6.2,9.2
		c0.4,0.6,1,1.5,1.2,2c0-0.6-0.1-2.8-0.1-3.8V192h3.4v17.5H501.6z"/>
	<path class="st6" d="M526.5,197.1c-0.6-1.2-1.6-1.9-3.2-1.9c-2.6,0-4.1,2.3-4.1,5.5c0,3.1,1.5,5.5,4.1,5.5c1.6,0,2.5-0.7,3.4-2.2
		l2.9,1.7c-1.2,2.5-3.3,3.9-6.5,3.9c-4.6,0-7.6-3.5-7.6-9c0-5.3,3.2-9,7.8-9c3.3,0,5.3,1.6,6.4,3.9L526.5,197.1z"/>
	<path class="st6" d="M539.3,209.8c-4.8,0-7.6-3.7-7.6-9s2.8-9,7.6-9s7.6,3.7,7.6,9S544.1,209.8,539.3,209.8z M539.3,195.2
		c-2.8,0-4,2.4-4,5.5c0,3.1,1.2,5.5,4,5.5s4-2.4,4-5.5C543.3,197.6,542.1,195.2,539.3,195.2z"/>
	<path class="st6" d="M561.5,209.5l-6.4-9.5c-0.4-0.6-1-1.5-1.2-2c0,0.6,0.1,2.8,0.1,3.8v7.7h-3.4V192h3.3l6.2,9.2
		c0.4,0.6,1,1.5,1.2,2c0-0.6-0.1-2.8-0.1-3.8V192h3.4v17.5H561.5z"/>
	<path class="st6" d="M576.5,195.5v14H573v-14h-5V192h13.5v3.4H576.5z"/>
	<path class="st6" d="M594.2,209.5l-1.4-3.9h-6.4l-1.4,3.9h-3.7L588,192h3.4l6.6,17.5H594.2z M590.5,199.1c-0.4-1-0.7-2.1-0.9-2.7
		c-0.2,0.6-0.5,1.7-0.9,2.7l-1.1,3.2h4L590.5,199.1z"/>
	<path class="st6" d="M601.6,209.5V192h3.5v17.5H601.6z"/>
	<path class="st6" d="M620.9,209.5l-6.4-9.5c-0.4-0.6-1-1.5-1.2-2c0,0.6,0.1,2.8,0.1,3.8v7.7h-3.4V192h3.3l6.2,9.2
		c0.4,0.6,1,1.5,1.2,2c0-0.6-0.1-2.8-0.1-3.8V192h3.4v17.5H620.9z"/>
	<path class="st6" d="M628.5,209.5V192h12.1v3.4H632v3h5v3.4h-5v4.2h9v3.4H628.5z"/>
	<path class="st6" d="M654.9,209.5l-3.1-6.3h-3.5v6.3h-3.5V192h8.1c3.3,0,6,1.8,6,5.5c0,2.6-1.1,4.3-3.3,5.1l3.3,6.8H654.9z
		 M652.8,195.4h-4.6v4.5h4.6c1.6,0,2.5-0.8,2.5-2.3C655.3,196.1,654.4,195.4,652.8,195.4z"/>
</g>
<g>
	<path class="st6" d="M449.6,256.5V246h2.1v8.4h5.3v2.1H449.6z"/>
	<path class="st6" d="M459,256.5V246h2.1v10.5H459z"/>
	<path class="st6" d="M468.7,256.5H464V246h4.8c2,0,3.3,1,3.3,2.8c0,0.9-0.4,1.6-1.1,2c0.8,0.4,1.5,1.1,1.5,2.3
		C472.5,255.3,471,256.5,468.7,256.5z M468.7,248H466v2h2.8c0.9,0,1.2-0.4,1.2-1C470,248.3,469.6,248,468.7,248z M468.8,251.8H466
		v2.7h2.8c1,0,1.5-0.5,1.5-1.4C470.3,252.3,469.8,251.8,468.8,251.8z"/>
	<path class="st6" d="M480.7,256.5l-1.9-3.8h-2.1v3.8h-2.1V246h4.9c2,0,3.6,1.1,3.6,3.3c0,1.6-0.7,2.6-2,3.1l2,4.1H480.7z
		 M479.5,248.1h-2.7v2.7h2.7c1,0,1.5-0.5,1.5-1.4C481,248.5,480.4,248.1,479.5,248.1z"/>
	<path class="st6" d="M490.1,256.5h-4.8V246h4.8c2,0,3.3,1,3.3,2.8c0,0.9-0.4,1.6-1.1,2c0.8,0.4,1.5,1.1,1.5,2.3
		C493.8,255.3,492.4,256.5,490.1,256.5z M490.1,248h-2.7v2h2.8c0.9,0,1.2-0.4,1.2-1C491.4,248.3,491,248,490.1,248z M490.2,251.8
		h-2.8v2.7h2.8c1,0,1.5-0.5,1.5-1.4C491.7,252.3,491.2,251.8,490.2,251.8z"/>
	<path class="st6" d="M499.1,256.5H496V246h3.3c3,0,5.2,1.4,5.2,5.2C504.5,255,501.8,256.5,499.1,256.5z M499.2,248.1h-1.1v6.4h1
		c2.2,0,3.2-1.3,3.2-3.2C502.3,249.1,501.4,248.1,499.2,248.1z"/>
</g>
<g>
	<path class="st6" d="M439.2,283.2v-10.5h2.1v8.4h5.3v2.1H439.2z"/>
	<path class="st6" d="M448.6,283.2v-10.5h2.1v10.5H448.6z"/>
	<path class="st6" d="M458.4,283.2h-4.8v-10.5h4.8c2,0,3.3,1,3.3,2.8c0,0.9-0.4,1.6-1.1,2c0.8,0.4,1.5,1.1,1.5,2.3
		C462.1,282,460.6,283.2,458.4,283.2z M458.3,274.6h-2.7v2h2.8c0.9,0,1.2-0.4,1.2-1C459.6,275,459.2,274.6,458.3,274.6z
		 M458.4,278.5h-2.8v2.7h2.8c1,0,1.5-0.5,1.5-1.4C459.9,278.9,459.5,278.5,458.4,278.5z"/>
	<path class="st6" d="M470.3,283.2l-1.9-3.8h-2.1v3.8h-2.1v-10.5h4.9c2,0,3.6,1.1,3.6,3.3c0,1.6-0.7,2.6-2,3.1l2,4.1H470.3z
		 M469.1,274.7h-2.7v2.7h2.7c1,0,1.5-0.5,1.5-1.4C470.6,275.1,470,274.7,469.1,274.7z"/>
	<path class="st6" d="M481.7,283.2l-0.8-2.3H477l-0.8,2.3H474l4-10.5h2l4,10.5H481.7z M479.5,276.9c-0.2-0.6-0.4-1.2-0.5-1.6
		c-0.1,0.4-0.3,1-0.5,1.6l-0.7,1.9h2.4L479.5,276.9z"/>
	<path class="st6" d="M489.1,283.2H486v-10.5h3.3c3,0,5.2,1.4,5.2,5.2C494.5,281.6,491.8,283.2,489.1,283.2z M489.2,274.7h-1.1v6.4
		h1c2.2,0,3.2-1.3,3.2-3.2C492.3,275.8,491.4,274.7,489.2,274.7z"/>
	<path class="st6" d="M500.6,283.4c-2.9,0-4.6-2.2-4.6-5.4c0-3.2,1.7-5.4,4.6-5.4c2.9,0,4.6,2.2,4.6,5.4
		C505.1,281.1,503.4,283.4,500.6,283.4z M500.6,274.6c-1.7,0-2.4,1.5-2.4,3.3c0,1.9,0.7,3.3,2.4,3.3c1.7,0,2.4-1.5,2.4-3.3
		C503,276.1,502.3,274.6,500.6,274.6z"/>
	<path class="st6" d="M510.6,283.4c-1.8,0-3.3-0.7-4.1-1.9l1.5-1.4c0.7,0.9,1.7,1.2,2.7,1.2c1.2,0,1.8-0.3,1.8-1.1
		c0-0.7-0.4-1-2.3-1.4c-1.9-0.5-3.3-1.1-3.3-3.1c0-1.9,1.7-3.1,3.7-3.1c1.6,0,2.8,0.6,3.8,1.6l-1.5,1.5c-0.7-0.7-1.4-1.1-2.4-1.1
		c-1.1,0-1.5,0.5-1.5,0.9c0,0.7,0.4,0.9,2.1,1.3c1.7,0.4,3.5,1,3.5,3.2C514.8,282,513.5,283.4,510.6,283.4z"/>
</g>
<g>
	<path class="st5" d="M599.9,611v-6.4c0-1,0.1-3.2,0.1-3.8c-0.2,0.7-0.8,1.9-1.2,2.9l-3.5,7.8l-3.5-7.8c-0.4-1-1-2.2-1.2-2.9
		c0,0.7,0.1,2.9,0.1,3.8v6.4h-3.4v-17.5h3.4l3.6,7.9c0.4,1,1,2.3,1.2,2.9c0.2-0.6,0.7-1.9,1.2-2.9l3.5-7.9h3.4V611H599.9z"/>
</g>
<rect x="35.1" y="428.4" class="st2" width="54.2" height="45.5"/>
<rect x="94.3" y="428.4" class="st2" width="54.2" height="45.5"/>
<rect x="153.5" y="428.4" class="st2" width="54.2" height="45.5"/>
<rect x="212.7" y="428.4" class="st2" width="54.2" height="45.5"/>
<rect x="272" y="428.4" class="st2" width="54.2" height="45.5"/>
<rect x="331.2" y="428.4" class="st2" width="54.2" height="45.5"/>
<rect x="390.4" y="428.4" class="st2" width="54.2" height="45.5"/>
<rect x="449.7" y="428.4" class="st2" width="54.2" height="45.5"/>
<rect x="508.9" y="428.4" class="st2" width="54.2" height="45.5"/>
<rect x="568.1" y="428.4" class="st2" width="54.2" height="45.5"/>
<rect x="627.4" y="428.4" class="st2" width="54.2" height="45.5"/>
<rect x="686.6" y="428.4" class="st2" width="54.2" height="45.5"/>
<rect x="745.8" y="428.4" class="st2" width="54.2" height="45.5"/>
<rect x="805.1" y="428.4" class="st2" width="54.2" height="45.5"/>
<rect x="864.3" y="428.4" class="st2" width="54.2" height="45.5"/>
<rect x="35.1" y="478.9" class="st2" width="54.2" height="45.5"/>
<rect x="94.3" y="478.9" class="st2" width="54.2" height="45.5"/>
<rect x="153.5" y="478.9" class="st2" width="54.2" height="45.5"/>
<rect x="212.7" y="478.9" class="st2" width="54.2" height="45.5"/>
<rect x="272" y="478.9" class="st2" width="54.2" height="45.5"/>
<rect x="331.2" y="478.9" class="st2" width="54.2" height="45.5"/>
<rect x="390.4" y="478.9" class="st2" width="54.2" height="45.5"/>
<rect x="449.7" y="478.9" class="st2" width="54.2" height="45.5"/>
<rect x="508.9" y="478.9" class="st2" width="54.2" height="45.5"/>
<rect x="568.1" y="478.9" class="st2" width="54.2" height="45.5"/>
<rect x="627.4" y="478.9" class="st2" width="54.2" height="45.5"/>
<rect x="686.6" y="478.9" class="st2" width="54.2" height="45.5"/>
<rect x="745.8" y="478.9" class="st2" width="54.2" height="45.5"/>
<rect x="805.1" y="478.9" class="st2" width="54.2" height="45.5"/>
<rect x="864.3" y="478.9" class="st2" width="54.2" height="45.5"/>
<rect x="35.1" y="529.4" class="st2" width="54.2" height="45.5"/>
<rect x="94.3" y="529.4" class="st2" width="54.2" height="45.5"/>
<rect x="153.5" y="529.4" class="st2" width="54.2" height="45.5"/>
<rect x="212.7" y="529.4" class="st2" width="54.2" height="45.5"/>
<rect x="272" y="529.4" class="st2" width="54.2" height="45.5"/>
<rect x="331.2" y="529.4" class="st2" width="54.2" height="45.5"/>
<rect x="449.7" y="529.4" class="st2" width="54.2" height="45.5"/>
<rect x="508.9" y="529.4" class="st2" width="54.2" height="45.5"/>
<rect x="568.1" y="529.4" class="st2" width="54.2" height="45.5"/>
<rect x="627.4" y="529.4" class="st2" width="54.2" height="45.5"/>
<rect x="686.6" y="529.4" class="st2" width="54.2" height="45.5"/>
<rect x="745.8" y="529.4" class="st2" width="54.2" height="45.5"/>
<rect x="805.1" y="529.4" class="st2" width="54.2" height="45.5"/>
<rect x="864.3" y="529.4" class="st2" width="54.2" height="45.5"/>
<rect x="35.1" y="579.9" class="st2" width="54.2" height="45.5"/>
<rect x="94.3" y="579.9" class="st2" width="54.2" height="45.5"/>
<rect x="153.5" y="579.9" class="st2" width="54.2" height="45.5"/>
<rect x="212.7" y="579.9" class="st2" width="54.2" height="45.5"/>
<rect x="331.2" y="579.9" class="st2" width="54.2" height="45.5"/>
<rect x="390.4" y="579.9" class="st2" width="54.2" height="45.5"/>
<rect x="449.7" y="579.9" class="st2" width="54.2" height="45.5"/>
<rect x="508.9" y="579.9" class="st2" width="54.2" height="45.5"/>
<rect x="627.4" y="579.9" class="st2" width="54.2" height="45.5"/>
<rect x="686.6" y="579.9" class="st2" width="54.2" height="45.5"/>
<rect x="745.8" y="579.9" class="st2" width="54.2" height="45.5"/>
<rect x="805.1" y="579.9" class="st2" width="54.2" height="45.5"/>
<rect x="864.3" y="579.9" class="st2" width="54.2" height="45.5"/>
<rect x="35.1" y="630.5" class="st2" width="54.2" height="45.5"/>
<rect x="94.3" y="630.5" class="st2" width="54.2" height="45.5"/>
<rect x="153.5" y="630.5" class="st2" width="54.2" height="45.5"/>
<rect x="212.7" y="630.5" class="st2" width="54.2" height="45.5"/>
<rect x="272" y="630.5" class="st2" width="54.2" height="45.5"/>
<rect x="331.2" y="630.5" class="st2" width="54.2" height="45.5"/>
<rect x="390.4" y="630.5" class="st2" width="54.2" height="45.5"/>
<rect x="449.7" y="630.5" class="st2" width="54.2" height="45.5"/>
<rect x="508.9" y="630.5" class="st2" width="54.2" height="45.5"/>
<rect x="568.1" y="630.5" class="st2" width="54.2" height="45.5"/>
<rect x="627.4" y="630.5" class="st2" width="54.2" height="45.5"/>
<rect x="686.6" y="630.5" class="st2" width="54.2" height="45.5"/>
<rect x="745.8" y="630.5" class="st2" width="54.2" height="45.5"/>
<rect x="805.1" y="630.5" class="st2" width="54.2" height="45.5"/>
<rect x="864.3" y="630.5" class="st2" width="54.2" height="45.5"/>
<rect x="39.4" y="459.8" class="st7" width="45.5" height="9.2"/>
<rect x="49.4" y="591.5" class="st8" width="25" height="15.2"/>
<rect x="168.1" y="485.7" class="st8" width="25" height="15.2"/>
<rect x="286.6" y="434.7" class="st8" width="25" height="15.2"/>
<rect x="819.7" y="485.7" class="st8" width="25" height="15.2"/>
<rect x="642" y="485.7" class="st8" width="25" height="15.2"/>
<rect x="701.2" y="536.9" class="st8" width="25" height="15.2"/>
<rect x="98.6" y="459.8" class="st7" width="45.5" height="9.2"/>
<rect x="157.9" y="459.8" class="st7" width="45.5" height="9.2"/>
<rect x="217.1" y="459.8" class="st7" width="45.5" height="9.2"/>
<rect x="276.3" y="459.8" class="st7" width="45.5" height="9.2"/>
<rect x="335.6" y="459.8" class="st7" width="45.5" height="9.2"/>
<rect x="394.8" y="459.8" class="st7" width="45.5" height="9.2"/>
<rect x="454" y="459.8" class="st7" width="45.5" height="9.2"/>
<rect x="513.3" y="459.8" class="st7" width="45.5" height="9.2"/>
<rect x="572.5" y="459.8" class="st7" width="45.5" height="9.2"/>
<rect x="631.7" y="459.8" class="st7" width="45.5" height="9.2"/>
<rect x="691" y="459.8" class="st7" width="45.5" height="9.2"/>
<rect x="750.2" y="459.8" class="st7" width="45.5" height="9.2"/>
<rect x="809.4" y="459.8" class="st7" width="45.5" height="9.2"/>
<rect x="868.7" y="459.8" class="st7" width="45.5" height="9.2"/>
<rect x="39.4" y="510.6" class="st7" width="45.5" height="9.2"/>
<rect x="98.6" y="510.6" class="st7" width="45.5" height="9.2"/>
<rect x="157.9" y="510.6" class="st7" width="45.5" height="9.2"/>
<rect x="217.1" y="510.6" class="st7" width="45.5" height="9.2"/>
<rect x="276.3" y="510.6" class="st7" width="45.5" height="9.2"/>
<rect x="335.6" y="510.6" class="st7" width="45.5" height="9.2"/>
<rect x="394.8" y="510.6" class="st7" width="45.5" height="9.2"/>
<rect x="454" y="510.6" class="st7" width="45.5" height="9.2"/>
<rect x="513.3" y="510.6" class="st7" width="45.5" height="9.2"/>
<rect x="572.5" y="510.6" class="st7" width="45.5" height="9.2"/>
<rect x="631.7" y="510.6" class="st7" width="45.5" height="9.2"/>
<rect x="691" y="510.6" class="st7" width="45.5" height="9.2"/>
<rect x="750.2" y="510.6" class="st7" width="45.5" height="9.2"/>
<rect x="809.4" y="510.6" class="st7" width="45.5" height="9.2"/>
<rect x="868.7" y="510.6" class="st7" width="45.5" height="9.2"/>
<rect x="39.4" y="560.3" class="st7" width="45.5" height="9.2"/>
<rect x="98.6" y="560.3" class="st7" width="45.5" height="9.2"/>
<rect x="157.9" y="560.3" class="st7" width="45.5" height="9.2"/>
<rect x="217.1" y="560.3" class="st7" width="45.5" height="9.2"/>
<rect x="276.3" y="560.3" class="st7" width="45.5" height="9.2"/>
<rect x="335.6" y="560.3" class="st7" width="45.5" height="9.2"/>
<rect x="454" y="560.3" class="st7" width="45.5" height="9.2"/>
<rect x="513.3" y="560.3" class="st7" width="45.5" height="9.2"/>
<rect x="572.5" y="560.3" class="st7" width="45.5" height="9.2"/>
<rect x="631.7" y="560.3" class="st7" width="45.5" height="9.2"/>
<rect x="691" y="560.3" class="st7" width="45.5" height="9.2"/>
<rect x="750.2" y="560.3" class="st7" width="45.5" height="9.2"/>
<rect x="809.4" y="560.3" class="st7" width="45.5" height="9.2"/>
<rect x="868.7" y="560.3" class="st7" width="45.5" height="9.2"/>
<rect x="39.4" y="610.1" class="st7" width="45.5" height="9.2"/>
<rect x="98.6" y="610.1" class="st7" width="45.5" height="9.2"/>
<rect x="157.9" y="610.1" class="st7" width="45.5" height="9.2"/>
<rect x="217.1" y="610.1" class="st7" width="45.5" height="9.2"/>
<rect x="335.6" y="610.1" class="st7" width="45.5" height="9.2"/>
<rect x="394.8" y="610.1" class="st7" width="45.5" height="9.2"/>
<rect x="454" y="610.1" class="st7" width="45.5" height="9.2"/>
<rect x="513.3" y="610.1" class="st7" width="45.5" height="9.2"/>
<rect x="631.7" y="610.1" class="st7" width="45.5" height="9.2"/>
<rect x="691" y="610.1" class="st7" width="45.5" height="9.2"/>
<rect x="750.2" y="610.1" class="st7" width="45.5" height="9.2"/>
<rect x="809.4" y="610.1" class="st7" width="45.5" height="9.2"/>
<rect x="868.7" y="610.1" class="st7" width="45.5" height="9.2"/>
<rect x="39.4" y="660.8" class="st7" width="45.5" height="9.2"/>
<rect x="98.6" y="660.8" class="st7" width="45.5" height="9.2"/>
<rect x="157.9" y="660.8" class="st7" width="45.5" height="9.2"/>
<rect x="217.1" y="660.8" class="st7" width="45.5" height="9.2"/>
<rect x="276.3" y="660.8" class="st7" width="45.5" height="9.2"/>
<rect x="335.6" y="660.8" class="st7" width="45.5" height="9.2"/>
<rect x="394.8" y="660.8" class="st7" width="45.5" height="9.2"/>
<rect x="454" y="660.8" class="st7" width="45.5" height="9.2"/>
<rect x="513.3" y="660.8" class="st7" width="45.5" height="9.2"/>
<rect x="572.5" y="660.8" class="st7" width="45.5" height="9.2"/>
<rect x="631.7" y="660.8" class="st7" width="45.5" height="9.2"/>
<rect x="691" y="660.8" class="st7" width="45.5" height="9.2"/>
<rect x="750.2" y="660.8" class="st7" width="45.5" height="9.2"/>
<rect x="809.4" y="660.8" class="st7" width="45.5" height="9.2"/>
<rect x="868.7" y="660.8" class="st7" width="45.5" height="9.2"/>
<polyline class="st9" points="476.2,291 476.2,339.7 62.2,339.7 62.2,591.5 "/>
<polyline class="st9" points="476.2,291 476.2,339.7 299.1,339.7 299.1,434.7 "/>
<polyline class="st9" points="476.2,291 476.2,339.7 180.6,339.7 180.6,485.7 "/>
<polyline class="st9" points="476.2,291 476.2,339.7 654.5,339.7 654.5,485.7 "/>
<polyline class="st9" points="476.2,291 476.2,339.7 713.7,339.7 713.7,536.9 "/>
<polyline class="st9" points="476.2,291 476.2,339.7 832.2,339.7 832.2,485.7 "/>
<g>
	<g>
		<rect x="453.6" y="99.6" class="st4" width="46.3" height="39.3"/>
		<rect x="457" y="129.3" class="st7" width="39.4" height="7.3"/>
		<rect x="457.7" y="110.9" class="st2" width="8.1" height="6.7"/>
		<rect x="467.8" y="110.9" class="st2" width="8.1" height="6.7"/>
		<rect x="477.8" y="110.9" class="st2" width="8.1" height="6.7"/>
		<rect x="487.9" y="110.9" class="st2" width="8.1" height="6.7"/>
		<rect x="457.7" y="119.6" class="st2" width="8.1" height="6.7"/>
		<rect x="467.8" y="119.6" class="st2" width="8.1" height="6.7"/>
		<rect x="477.8" y="119.6" class="st2" width="8.1" height="6.7"/>
		<rect x="487.9" y="119.6" class="st2" width="8.1" height="6.7"/>
	</g>
	<rect x="457.7" y="102.3" class="st2" width="8.1" height="6.7"/>
	<rect x="467.8" y="102.3" class="st2" width="8.1" height="6.7"/>
	<rect x="477.8" y="102.3" class="st2" width="8.1" height="6.7"/>
	<rect x="487.9" y="102.3" class="st2" width="8.1" height="6.7"/>
</g>
<line class="st9" x1="476.7" y1="164.1" x2="476.7" y2="138.9"/>
<g>
	<g>
		<line class="st9" x1="476.7" y1="99.6" x2="476.7" y2="81.6"/>
		<g>
			<polygon class="st6" points="481.7,83.1 476.7,74.5 471.7,83.1 			"/>
		</g>
	</g>
</g>
<g>
	<g>
		<line class="st9" x1="476.2" y1="291" x2="476.2" y2="332.5"/>
		<g>
			<polygon class="st6" points="471.2,331 476.2,339.7 481.2,331 			"/>
		</g>
	</g>
</g>
<g>
</g>
<g>
</g>
<g>
</g>
<g>
</g>
<g>
</g>
<g>
</g>
<g>
</g>
</svg>
